<svg xmlns="http://www.w3.org/2000/svg" width="231.455" height="235.528" viewBox="0 0 231.455 235.528">
  <path id="Trazado_1" data-name="Trazado 1" d="M248.718,254.457c-23.464,22.182-33.359,45.566-41.2,62.639a176.421,176.421,0,0,0-16.035,71.158c-.191,15.1,2.032,31.3,12.1,42.547,5.56,6.211,13.08,10.371,20.869,13.343,47.38,18.08,101.414-6.4,137.838-41.69,34.524-33.443,59.752-78.715,60.617-126.773.235-13.041-1.816-27.217-11.09-36.388-5.144-5.087-11.972-8.065-18.754-10.582-32.311-11.993-49.247-15.728-70.38-13.273C285.41,219.769,261.384,242.483,248.718,254.457Z" transform="translate(-191.47 -214.723)" fill="#656d26"/>
</svg>
