<svg id="Capa_1" data-name="Capa 1" xmlns="http://www.w3.org/2000/svg" viewBox="0 0 1033.2 292.27"><defs><style>.cls-1{fill:#656d26;}.cls-2{fill:#f16f26;}.cls-3{isolation:isolate;}.cls-4{fill:#fff;}.cls-5{fill:#707070;}</style></defs><g id="Grupo_32" data-name="Grupo 32"><path id="Trazado_1" data-name="Trazado 1" class="cls-1" d="M76.77,133.79C53.3,156,43.41,179.35,35.57,196.43a176.3,176.3,0,0,0-16,71.15c-.19,15.1,2,31.3,12.1,42.55,5.56,6.21,13.08,10.37,20.87,13.34,47.38,18.08,101.41-6.4,137.84-41.69C224.86,248.34,250.09,203.07,251,155c.23-13-1.82-27.22-11.09-36.39-5.15-5.08-12-8.06-18.76-10.58-32.31-12-49.25-15.73-70.38-13.27C113.46,99.1,89.43,121.81,76.77,133.79Z" transform="translate(-19.52 -37.31)"/><path id="Trazado_2" data-name="Trazado 2" class="cls-2" d="M936.53,110.86c-.38,7.59-.8,17.8,3.91,29.72,10.38,26.28,35.65,35.64,38.86,36.77,6.06,2.13,27.22,9.58,44.1-1.31,7.25-4.68,10.62-10.74,15-18.78,6-11.07,19-35.27,12.64-65.65-2.17-10.33-6.37-30.27-24.94-43.37C1011.4,37.9,990.34,33.63,972.4,41,939.39,54.68,937.11,99.56,936.53,110.86Z" transform="translate(-19.52 -37.31)"/><g id="manuela_navarro" data-name="manuela navarro" class="cls-3"><g class="cls-3"><path class="cls-4" d="M123.76,140.38a.51.51,0,0,1,.52.43l.47,2.84a6.65,6.65,0,0,1,6.15-3.7,6.28,6.28,0,0,1,6.28,4.09A7.44,7.44,0,0,1,144,140c4.22,0,7.1,2.8,7.1,8.69v10.75c0,.26-.13.43-.39.43H148a.4.4,0,0,1-.43-.43V148.9c0-4-1.68-5.51-4.3-5.51-3.1,0-5.25,2.75-5.29,7.27v8.73a.41.41,0,0,1-.43.43h-2.63a.41.41,0,0,1-.43-.43V148.9c0-4-1.72-5.51-4.3-5.51-3,0-5.11,3-5.29,7v9a.4.4,0,0,1-.42.43h-2.63a.4.4,0,0,1-.43-.43V140.81a.4.4,0,0,1,.43-.43Z" transform="translate(-19.52 -37.31)"/><path class="cls-4" d="M211.7,140.77a.46.46,0,0,1,.47-.39h2a.34.34,0,0,1,.39.39v18.62a.39.39,0,0,1-.43.43h-2a.53.53,0,0,1-.47-.39l-.52-2.88a8.26,8.26,0,0,1-7.27,3.7c-5.85,0-9.8-4.13-9.8-10.15s4-10.1,9.8-10.15a8.26,8.26,0,0,1,7.27,3.7Zm-7.53,16a6.71,6.71,0,1,0,0-13.42,6.71,6.71,0,0,0,0,13.42Z" transform="translate(-19.52 -37.31)"/></g><g class="cls-3"><path class="cls-5" d="M259.13,140.81a.39.39,0,0,1,.38-.43h1.94a.5.5,0,0,1,.51.43l.48,3a7.19,7.19,0,0,1,6.71-3.87c4.55,0,7.65,2.8,7.65,8.69l0,10.75a.4.4,0,0,1-.43.43h-2.66a.4.4,0,0,1-.39-.43V148.9c0-4-2-5.51-4.86-5.51-3.31,0-5.72,3-5.89,7v9a.4.4,0,0,1-.43.43h-2.62a.4.4,0,0,1-.43-.43Z" transform="translate(-19.52 -37.31)"/><path class="cls-5" d="M335.62,156.38a7.46,7.46,0,0,1-6.83,3.91c-4.56,0-7.61-2.84-7.61-8.69l-.05-10.79a.4.4,0,0,1,.43-.43h2.67a.4.4,0,0,1,.39.43V151.3c0,4.09,1.93,5.59,4.9,5.59,3.31,0,5.76-3,5.93-7.09v-9a.4.4,0,0,1,.43-.43h2.62a.4.4,0,0,1,.43.43v18.62a.38.38,0,0,1-.38.39h-1.94a.5.5,0,0,1-.51-.39Z" transform="translate(-19.52 -37.31)"/><path class="cls-5" d="M392.64,156.89a7.23,7.23,0,0,0,5.29-1.93.61.61,0,0,1,.39-.22c.13,0,.21.09.3.18l1.76,1.72a.38.38,0,0,1,0,.6c-1.76,2-4.51,3-7.86,3-6.28,0-10.5-4.09-10.5-10.15S386.15,140,392.17,140c6.28,0,10.1,4,10.06,11.18,0,.26-.13.43-.39.43H385.68C386.23,154.79,388.86,156.89,392.64,156.89Zm6-8.21a6.64,6.64,0,0,0-13,0Z" transform="translate(-19.52 -37.31)"/><path class="cls-5" d="M449,159.39a.4.4,0,0,1-.43.43h-2.66a.4.4,0,0,1-.39-.43V129.2a.4.4,0,0,1,.39-.43h2.66a.4.4,0,0,1,.43.43Z" transform="translate(-19.52 -37.31)"/><path class="cls-5" d="M509.86,140.77a.46.46,0,0,1,.47-.39h2a.34.34,0,0,1,.39.39v18.62a.39.39,0,0,1-.43.43h-2a.53.53,0,0,1-.47-.39l-.52-2.88a8.26,8.26,0,0,1-7.27,3.7c-5.84,0-9.8-4.13-9.8-10.15s4-10.1,9.8-10.15a8.26,8.26,0,0,1,7.27,3.7Zm-7.53,16a6.71,6.71,0,1,0,0-13.42,6.71,6.71,0,0,0,0,13.42Z" transform="translate(-19.52 -37.31)"/><path class="cls-5" d="M606.74,140.81a.39.39,0,0,1,.38-.43h1.94a.52.52,0,0,1,.52.43l.47,3a7.19,7.19,0,0,1,6.71-3.87c4.55,0,7.65,2.8,7.65,8.69l0,10.75a.4.4,0,0,1-.43.43h-2.66a.4.4,0,0,1-.39-.43V148.9c0-4-2-5.51-4.86-5.51-3.31,0-5.72,3-5.89,7v9a.4.4,0,0,1-.43.43h-2.62a.4.4,0,0,1-.43-.43Z" transform="translate(-19.52 -37.31)"/><path class="cls-5" d="M685.08,140.77a.47.47,0,0,1,.48-.39h2a.34.34,0,0,1,.38.39v18.62a.39.39,0,0,1-.43.43h-2a.55.55,0,0,1-.47-.39l-.52-2.88a8.23,8.23,0,0,1-7.26,3.7c-5.85,0-9.81-4.13-9.81-10.15s4-10.1,9.81-10.15a8.23,8.23,0,0,1,7.26,3.7Zm-7.52,16a6.71,6.71,0,1,0,0-13.42,6.71,6.71,0,0,0,0,13.42Z" transform="translate(-19.52 -37.31)"/><path class="cls-5" d="M741.58,159.43a.6.6,0,0,1-.6.39H738.1a.64.64,0,0,1-.6-.39l-7.61-18.49c-.13-.3,0-.56.34-.56h3a.51.51,0,0,1,.48.35l5.84,15.05,5.81-15a.62.62,0,0,1,.51-.39l3,0c.39,0,.52.22.39.52Z" transform="translate(-19.52 -37.31)"/><path class="cls-5" d="M807.33,140.77a.46.46,0,0,1,.47-.39h2a.34.34,0,0,1,.38.39v18.62a.39.39,0,0,1-.43.43h-2a.54.54,0,0,1-.47-.39l-.52-2.88a8.25,8.25,0,0,1-7.27,3.7c-5.84,0-9.8-4.13-9.8-10.15s4-10.1,9.8-10.15a8.25,8.25,0,0,1,7.27,3.7Zm-7.52,16a6.71,6.71,0,1,0,0-13.42,6.71,6.71,0,0,0,0,13.42Z" transform="translate(-19.52 -37.31)"/><path class="cls-5" d="M862.24,143.48a4.52,4.52,0,0,0-4,3v12.9a.4.4,0,0,1-.43.43h-2.62a.4.4,0,0,1-.43-.43V140.81c0-.26.13-.43.39-.43H857a.52.52,0,0,1,.52.43l.34,1.55a6.78,6.78,0,0,1,5.08-2.36,10.28,10.28,0,0,1,3.09.51.37.37,0,0,1,.26.52l-.73,2.75a.36.36,0,0,1-.34.3s-.09,0-.18,0A7.94,7.94,0,0,0,862.24,143.48Z" transform="translate(-19.52 -37.31)"/><path class="cls-5" d="M915.86,143.48a4.52,4.52,0,0,0-4,3v12.9a.4.4,0,0,1-.43.43h-2.62a.4.4,0,0,1-.43-.43V140.81c0-.26.13-.43.39-.43h1.8a.52.52,0,0,1,.52.43l.34,1.55a6.78,6.78,0,0,1,5.08-2.36,10.28,10.28,0,0,1,3.09.51.37.37,0,0,1,.26.52l-.73,2.75a.36.36,0,0,1-.34.3s-.09,0-.18,0A7.94,7.94,0,0,0,915.86,143.48Z" transform="translate(-19.52 -37.31)"/></g><g class="cls-3"><path class="cls-4" d="M970.69,140c6.06,0,10.1,4.09,10.1,10.11s-4,10.19-10.1,10.19-10.11-4.13-10.11-10.19S964.67,140,970.69,140Zm0,16.86A6.71,6.71,0,1,0,964,150.1,6.35,6.35,0,0,0,970.69,156.81Z" transform="translate(-19.52 -37.31)"/></g></g><g id="PORTAFOLIO" class="cls-3"><g class="cls-3"><path class="cls-4" d="M122.13,205.59a.22.22,0,0,1-.23.23h-1.17a.22.22,0,0,1-.23-.23v-15.5a.22.22,0,0,1,.25-.23h5c3.19,0,5.1,1.65,5.12,4.53s-1.93,4.55-5.12,4.55h-3.59Zm3.63-8.12c2.3,0,3.47-1.15,3.47-3.06s-1.17-3.1-3.47-3.1l-3.63,0v6.14Z" transform="translate(-19.52 -37.31)"/><path class="cls-4" d="M221.44,189.65c4.92,0,8.19,3.29,8.19,8.19s-3.27,8.18-8.19,8.18-8.19-3.26-8.19-8.18S216.52,189.65,221.44,189.65Zm0,14.81a6.62,6.62,0,1,0-6.58-6.62A6.22,6.22,0,0,0,221.44,204.46Z" transform="translate(-19.52 -37.31)"/></g><g class="cls-3"><path class="cls-5" d="M315.4,198.94v6.65a.22.22,0,0,1-.23.23H314a.22.22,0,0,1-.23-.23v-15.5a.22.22,0,0,1,.23-.23h4.53c3.2,0,5.11,1.65,5.13,4.53,0,2.62-1.58,4.21-4.25,4.51l4.27,6.64c.12.19.05.28-.13.28H322a.29.29,0,0,1-.23-.12l-4.09-6.76Zm0-7.63v6.16h3.17c2.3,0,3.47-1.15,3.47-3.06s-1.17-3.1-3.47-3.1Z" transform="translate(-19.52 -37.31)"/><path class="cls-5" d="M406.13,191.33a.19.19,0,0,1-.2-.21v-1a.21.21,0,0,1,.2-.23h11.38a.22.22,0,0,1,.23.23v1a.22.22,0,0,1-.23.23h-4.87v14.28a.21.21,0,0,1-.23.21h-1.17a.21.21,0,0,1-.21-.21V191.33Z" transform="translate(-19.52 -37.31)"/><path class="cls-5" d="M501.33,200.69l-2,5a.26.26,0,0,1-.26.16H497.9c-.18,0-.25-.09-.18-.26L504,190.09a.3.3,0,0,1,.3-.21h1.2a.33.33,0,0,1,.32.21l6.3,15.47c.07.17,0,.26-.16.26h-1.2a.29.29,0,0,1-.23-.16l-2-5Zm.6-1.47h6l-3-7.45Z" transform="translate(-19.52 -37.31)"/><path class="cls-5" d="M597.12,205.59a.22.22,0,0,1-.23.23h-1.15a.22.22,0,0,1-.23-.23v-15.5a.23.23,0,0,1,.26-.23h8.28a.22.22,0,0,1,.23.23v1a.23.23,0,0,1-.26.23h-6.9v5.61h5.82a.22.22,0,0,1,.23.23v1a.22.22,0,0,1-.23.25h-5.82Z" transform="translate(-19.52 -37.31)"/><path class="cls-5" d="M695.29,189.65c4.92,0,8.18,3.29,8.18,8.19s-3.26,8.18-8.18,8.18-8.19-3.26-8.19-8.18S690.37,189.65,695.29,189.65Zm0,14.81a6.62,6.62,0,1,0-6.58-6.62A6.22,6.22,0,0,0,695.29,204.46Z" transform="translate(-19.52 -37.31)"/><path class="cls-5" d="M795,204.35a.22.22,0,0,1,.23.23v1a.21.21,0,0,1-.21.21h-7.13a.21.21,0,0,1-.23-.21V190.09a.21.21,0,0,1,.21-.23H789a.22.22,0,0,1,.23.23v14.26Z" transform="translate(-19.52 -37.31)"/><path class="cls-5" d="M880.6,205.61a.21.21,0,0,1-.21.21h-1.17a.21.21,0,0,1-.23-.21V190.09a.21.21,0,0,1,.21-.23h1.17a.22.22,0,0,1,.23.23Z" transform="translate(-19.52 -37.31)"/><path class="cls-5" d="M972.94,189.65c4.92,0,8.19,3.29,8.19,8.19s-3.27,8.18-8.19,8.18-8.18-3.26-8.18-8.18S968,189.65,972.94,189.65Zm0,14.81a6.62,6.62,0,1,0-6.57-6.62A6.22,6.22,0,0,0,972.94,204.46Z" transform="translate(-19.52 -37.31)"/></g></g></g></svg>