<svg id="Capa_1" data-name="Capa 1" xmlns="http://www.w3.org/2000/svg" viewBox="0 0 315 144"><defs><style>.cls-1{fill:#656d26;}.cls-2{isolation:isolate;}.cls-3{fill:#fff;}.cls-4{fill:#707070;}.cls-5{fill:#f16f26;}</style></defs><g id="Grupo_33" data-name="Grupo 33"><path id="Trazado_1" data-name="Trazado 1" class="cls-1" d="M28.34,76.25c-7.11,6.73-10.11,13.81-12.49,19A53.55,53.55,0,0,0,11,116.81c-.06,4.58.62,9.49,3.67,12.9a16.08,16.08,0,0,0,6.33,4c14.36,5.48,30.74-1.95,41.78-12.64C73.23,111,80.88,97.26,81.14,82.69c.08-4-.55-8.25-3.36-11a15.55,15.55,0,0,0-5.68-3.21c-9.8-3.63-14.93-4.77-21.34-4C39.47,65.74,32.18,72.62,28.34,76.25Z"/><g id="PORTAFOLIO" class="cls-2"><g class="cls-2"><path class="cls-3" d="M52,114.85a.06.06,0,0,1-.06.06h-.3a.07.07,0,0,1-.07-.06v-4a.07.07,0,0,1,.07-.06H53c.83,0,1.33.44,1.33,1.19s-.5,1.18-1.33,1.18H52Zm1-2.12c.6,0,.9-.3.9-.8s-.3-.81-.9-.81H52v1.6Z"/></g><g class="cls-2"><path class="cls-4" d="M77.92,110.69a2.14,2.14,0,1,1-2.14,2.14A2,2,0,0,1,77.92,110.69Zm0,3.86a1.73,1.73,0,1,0-1.72-1.72A1.62,1.62,0,0,0,77.92,114.55Z"/><path class="cls-4" d="M102.43,113.11v1.74a.06.06,0,0,1-.06.06h-.31a.06.06,0,0,1-.06-.06v-4a.06.06,0,0,1,.06-.06h1.18c.84,0,1.34.44,1.34,1.19a1.11,1.11,0,0,1-1.11,1.17l1.12,1.73s0,.08,0,.08h-.39a.09.09,0,0,1-.06,0L103,113.11Zm0-2v1.61h.83c.6,0,.9-.3.9-.8s-.3-.81-.9-.81Z"/><path class="cls-4" d="M126.1,111.13s0,0,0-.06v-.27a.06.06,0,0,1,0-.06h3a.06.06,0,0,1,.06.06v.27a.06.06,0,0,1-.06.06H127.8v3.72a.06.06,0,0,1-.06.06h-.31a.06.06,0,0,1-.05-.06v-3.72Z"/><path class="cls-4" d="M150.93,113.57l-.52,1.29s0,0-.07,0H150s-.07,0,0-.07l1.65-4a.08.08,0,0,1,.08,0H152a.08.08,0,0,1,.08,0l1.65,4s0,.07,0,.07h-.32s0,0-.06,0l-.52-1.29Zm.16-.38h1.58l-.79-2Z"/><path class="cls-4" d="M175.92,114.85a.06.06,0,0,1-.06.06h-.3a.06.06,0,0,1-.06-.06v-4a.07.07,0,0,1,.07-.06h2.16a.06.06,0,0,1,.06.06v.27a.07.07,0,0,1-.07.06h-1.8v1.46h1.52a.06.06,0,0,1,.06.06v.26s0,.07-.06.07h-1.52Z"/><path class="cls-4" d="M201.53,110.69a2.14,2.14,0,1,1-2.13,2.14A2,2,0,0,1,201.53,110.69Zm0,3.86a1.73,1.73,0,1,0-1.72-1.72A1.62,1.62,0,0,0,201.53,114.55Z"/><path class="cls-4" d="M227.53,114.52a.06.06,0,0,1,.06.06v.27a.06.06,0,0,1-.06.06h-1.86a.06.06,0,0,1,0-.06v-4a.06.06,0,0,1,0-.06h.3a.07.07,0,0,1,.07.06v3.72Z"/><path class="cls-4" d="M249.87,114.85a.06.06,0,0,1-.05.06h-.31a.06.06,0,0,1-.06-.06v-4a.06.06,0,0,1,.06-.06h.3a.06.06,0,0,1,.06.06Z"/><path class="cls-4" d="M274,110.69a2.14,2.14,0,1,1-2.13,2.14A2,2,0,0,1,274,110.69Zm0,3.86a1.73,1.73,0,1,0-1.71-1.72A1.62,1.62,0,0,0,274,114.55Z"/></g></g><path id="Trazado_2" data-name="Trazado 2" class="cls-5" d="M252.47,41a27.06,27.06,0,0,0,1.59,12.09c4.22,10.7,14.51,14.5,15.81,15,2.47.86,11.08,3.9,17.95-.54,2.95-1.9,4.32-4.37,6.09-7.64,2.43-4.5,7.74-14.35,5.14-26.71-.88-4.21-2.59-12.32-10.15-17.66-6-4.2-14.54-5.94-21.84-2.92C253.64,18.17,252.71,36.43,252.47,41Z"/><g id="manuela_navarro" data-name="manuela navarro" class="cls-2"><g class="cls-2"><path class="cls-4" d="M50.67,47.61a.3.3,0,0,1,.3.25l.27,1.65a3.87,3.87,0,0,1,3.58-2.15,3.66,3.66,0,0,1,3.65,2.37,4.32,4.32,0,0,1,4-2.37c2.45,0,4.12,1.62,4.12,5v6.25a.22.22,0,0,1-.23.25H64.77a.24.24,0,0,1-.25-.25v-6.1c0-2.33-1-3.2-2.5-3.2-1.8,0-3.05,1.6-3.08,4.22v5.08a.24.24,0,0,1-.25.25H57.17a.24.24,0,0,1-.25-.25v-6.1c0-2.33-1-3.2-2.5-3.2-1.75,0-3,1.75-3.08,4v5.25a.24.24,0,0,1-.25.25H49.57a.24.24,0,0,1-.25-.25V47.86a.24.24,0,0,1,.25-.25Z"/><path class="cls-4" d="M101.79,47.83a.27.27,0,0,1,.28-.22h1.17c.15,0,.23.07.23.22V58.66a.23.23,0,0,1-.25.25H102a.32.32,0,0,1-.27-.23l-.3-1.67a4.81,4.81,0,0,1-4.23,2.15c-3.4,0-5.7-2.4-5.7-5.9a5.52,5.52,0,0,1,5.7-5.9,4.81,4.81,0,0,1,4.23,2.15Zm-4.37,9.33a3.9,3.9,0,1,0,0-7.8,3.9,3.9,0,0,0,0,7.8Z"/><path class="cls-4" d="M129.37,47.86a.23.23,0,0,1,.22-.25h1.13a.3.3,0,0,1,.3.25l.27,1.75a4.17,4.17,0,0,1,3.9-2.25c2.65,0,4.45,1.62,4.45,5l0,6.25a.24.24,0,0,1-.25.25h-1.55a.23.23,0,0,1-.23-.25v-6.1c0-2.33-1.17-3.2-2.82-3.2-1.93,0-3.33,1.75-3.43,4.07v5.23a.24.24,0,0,1-.25.25h-1.52a.24.24,0,0,1-.25-.25Z"/><path class="cls-4" d="M173.84,56.91a4.34,4.34,0,0,1-4,2.27c-2.65,0-4.43-1.65-4.43-5l0-6.27a.24.24,0,0,1,.25-.25h1.55a.23.23,0,0,1,.22.25V54c0,2.37,1.13,3.25,2.85,3.25,1.93,0,3.35-1.73,3.45-4.13V47.86a.24.24,0,0,1,.25-.25h1.53a.24.24,0,0,1,.25.25V58.68a.23.23,0,0,1-.23.23h-1.12a.3.3,0,0,1-.3-.23Z"/><path class="cls-4" d="M207,57.21a4.21,4.21,0,0,0,3.08-1.13.35.35,0,0,1,.22-.12.25.25,0,0,1,.18.1l1,1a.22.22,0,0,1,0,.35,6,6,0,0,1-4.58,1.75c-3.65,0-6.1-2.38-6.1-5.9a5.6,5.6,0,0,1,5.88-5.9c3.65,0,5.87,2.32,5.85,6.5a.22.22,0,0,1-.23.25h-9.4A3.79,3.79,0,0,0,207,57.21Zm3.5-4.78a3.86,3.86,0,0,0-7.57,0Z"/><path class="cls-4" d="M239.77,58.66a.24.24,0,0,1-.25.25H238a.23.23,0,0,1-.23-.25V41.11a.23.23,0,0,1,.23-.25h1.55a.24.24,0,0,1,.25.25Z"/></g><g class="cls-2"><path class="cls-3" d="M275.14,47.83a.27.27,0,0,1,.28-.22h1.17c.15,0,.23.07.23.22V58.66a.23.23,0,0,1-.25.25h-1.18a.32.32,0,0,1-.27-.23l-.3-1.67a4.81,4.81,0,0,1-4.23,2.15c-3.4,0-5.7-2.4-5.7-5.9a5.52,5.52,0,0,1,5.7-5.9,4.81,4.81,0,0,1,4.23,2.15Zm-4.37,9.33a3.9,3.9,0,1,0,0-7.8,3.9,3.9,0,0,0,0,7.8Z"/></g><g class="cls-2"><path class="cls-3" d="M54.73,82.86a.23.23,0,0,1,.23-.25h1.12a.29.29,0,0,1,.3.25l.28,1.75a4.16,4.16,0,0,1,3.9-2.25c2.65,0,4.44,1.62,4.44,5l0,6.25a.24.24,0,0,1-.25.25H63.23a.23.23,0,0,1-.22-.25v-6.1c0-2.33-1.18-3.2-2.83-3.2-1.92,0-3.32,1.75-3.42,4.07v5.23a.24.24,0,0,1-.25.25H55a.24.24,0,0,1-.25-.25Z"/></g><g class="cls-2"><path class="cls-4" d="M100.28,82.83a.27.27,0,0,1,.28-.22h1.17a.19.19,0,0,1,.22.22V93.66a.22.22,0,0,1-.25.25h-1.17a.33.33,0,0,1-.28-.23L100,92a4.81,4.81,0,0,1-4.23,2.15c-3.4,0-5.7-2.4-5.7-5.9a5.52,5.52,0,0,1,5.7-5.9A4.81,4.81,0,0,1,100,84.51Zm-4.37,9.33a3.9,3.9,0,1,0,0-7.8,3.9,3.9,0,0,0,0,7.8Z"/><path class="cls-4" d="M133.13,93.68a.36.36,0,0,1-.35.23h-1.67a.38.38,0,0,1-.35-.23l-4.43-10.75c-.07-.17,0-.32.2-.32h1.75a.29.29,0,0,1,.28.2l3.4,8.75,3.37-8.73a.36.36,0,0,1,.3-.22l1.72,0c.23,0,.3.13.23.3Z"/><path class="cls-4" d="M171.35,82.83a.27.27,0,0,1,.28-.22h1.17c.15,0,.23.07.23.22V93.66a.23.23,0,0,1-.25.25H171.6a.32.32,0,0,1-.27-.23L171,92a4.79,4.79,0,0,1-4.22,2.15c-3.4,0-5.7-2.4-5.7-5.9a5.52,5.52,0,0,1,5.7-5.9A4.79,4.79,0,0,1,171,84.51ZM167,92.16a3.9,3.9,0,1,0,0-7.8,3.9,3.9,0,0,0,0,7.8Z"/><path class="cls-4" d="M203.28,84.41A2.62,2.62,0,0,0,201,86.16v7.5a.24.24,0,0,1-.25.25h-1.53a.24.24,0,0,1-.25-.25V82.86a.22.22,0,0,1,.23-.25h1.05a.3.3,0,0,1,.3.25l.2.9a3.93,3.93,0,0,1,2.95-1.38,6.1,6.1,0,0,1,1.8.3.22.22,0,0,1,.14.3l-.42,1.6a.22.22,0,0,1-.2.18s0,0-.1,0A4.87,4.87,0,0,0,203.28,84.41Z"/><path class="cls-4" d="M234.46,84.41a2.63,2.63,0,0,0-2.33,1.75v7.5a.24.24,0,0,1-.25.25h-1.52a.24.24,0,0,1-.25-.25V82.86c0-.15.07-.25.22-.25h1a.29.29,0,0,1,.3.25l.2.9a4,4,0,0,1,3-1.38,6.1,6.1,0,0,1,1.8.3.22.22,0,0,1,.15.3l-.43,1.6a.21.21,0,0,1-.2.18s-.05,0-.1,0A4.8,4.8,0,0,0,234.46,84.41Z"/><path class="cls-4" d="M266.33,82.36a5.9,5.9,0,1,1-5.87,5.87A5.56,5.56,0,0,1,266.33,82.36Zm0,9.8a3.9,3.9,0,1,0-3.87-3.9A3.69,3.69,0,0,0,266.33,92.16Z"/></g></g></g></svg>