<svg xmlns="http://www.w3.org/2000/svg" width="1033.203" height="292.272" viewBox="0 0 1033.203 292.272">
  <g id="Grupo_32" data-name="Grupo 32" transform="translate(-152 -271.492)">
    <path id="Trazado_1" data-name="Trazado 1" d="M248.718,254.457c-23.464,22.182-33.359,45.566-41.2,62.639a176.421,176.421,0,0,0-16.035,71.158c-.191,15.1,2.032,31.3,12.1,42.547,5.56,6.211,13.08,10.371,20.869,13.343,47.38,18.08,101.414-6.4,137.838-41.69,34.524-33.443,59.752-78.715,60.617-126.773.235-13.041-1.816-27.217-11.09-36.388-5.144-5.087-11.972-8.065-18.754-10.582-32.311-11.993-49.247-15.728-70.38-13.273C285.41,219.769,261.384,242.483,248.718,254.457Z" transform="translate(-39.47 113.513)" fill="#656d26"/>
    <path id="Trazado_2" data-name="Trazado 2" d="M1082.633,294.319c-.387,7.592-.8,17.8,3.908,29.718,10.376,26.283,35.653,35.641,38.857,36.769,6.061,2.133,27.217,9.579,44.1-1.306,7.256-4.677,10.625-10.742,14.961-18.779,5.976-11.074,19.031-35.27,12.641-65.65-2.173-10.333-6.367-30.273-24.942-43.373-14.663-10.341-35.722-14.612-53.66-7.2C1085.494,238.142,1083.209,283.016,1082.633,294.319Z" transform="translate(-13.618 50.724)" fill="#f16f26"/>
    <text id="manuela_navarro" data-name="manuela navarro" transform="translate(251 394)" fill="#fff" font-size="43" font-family="AgeoPersonalUse-Medium, Ageo Personal Use" font-weight="500" letter-spacing="0.9em"><tspan x="0" y="0">ma</tspan><tspan y="0" fill="#707070">nuela navarr</tspan><tspan y="0">o</tspan></text>
    <text id="PORTAFOLIO" transform="translate(251 440)" fill="#fff" font-size="23" font-family="AgeoPersonalUse-Regular, Ageo Personal Use" letter-spacing="3.53em"><tspan x="0" y="0">PO</tspan><tspan y="0" fill="#707070">RTAFOLIO</tspan></text>
  </g>
</svg>
